<svg xmlns="http://www.w3.org/2000/svg" viewBox="0 0 120 50" fill="none">
  <path d="M44.8 10.2h-9.4c-.6 0-1.2.5-1.3 1.1L30.4 33c-.1.5.3.9.8.9h4.5c.6 0 1.2-.5 1.3-1.1l1-6.3c.1-.6.7-1.1 1.3-1.1h3c6.4 0 10-3.1 11-9.2.4-2.7 0-4.8-1.3-6.2-1.4-1.6-3.8-2.4-6.8-2.4l-.4.6zm1.1 9c-.5 3.4-3.1 3.4-5.6 3.4h-1.4l1-6.3c.1-.4.4-.6.8-.6h.6c1.7 0 3.3 0 4.1 1 .5.5.7 1.4.5 2.5z" fill="#253B80"/>
  <path d="M71.4 19.1h-4.5c-.4 0-.7.2-.8.6l-.2 1.2-.3-.4c-1-1.4-3.1-1.9-5.2-1.9-4.9 0-9 3.7-9.8 8.9-.4 2.6.2 5 1.6 6.7 1.3 1.6 3.2 2.2 5.4 2.2 3.8 0 5.9-2.5 5.9-2.5l-.2 1.2c-.1.5.3.9.8.9h4.1c.6 0 1.2-.5 1.3-1.1l2.4-15c.1-.5-.3-.8-.5-.8zm-5.9 8.6c-.4 2.5-2.4 4.2-5 4.2-1.3 0-2.3-.4-3-1.2-.6-.8-.9-1.9-.7-3.1.4-2.5 2.4-4.2 4.9-4.2 1.3 0 2.3.4 3 1.2.7.8 1 2 .8 3.1z" fill="#253B80"/>
  <path d="M91 19.1h-4.6c-.4 0-.8.2-1.1.6L80 27.5l-2.3-7.5c-.2-.5-.6-.9-1.2-.9h-4.4c-.5 0-.9.5-.7 1l4.3 12.6-4 5.7c-.4.5 0 1.2.6 1.2h4.5c.4 0 .8-.2 1-.6l12.8-18.5c.4-.6 0-1.4-.6-1.4z" fill="#253B80"/>
</svg>
