<svg xmlns="http://www.w3.org/2000/svg" viewBox="0 0 120 50" fill="none">
  <path d="M50.8 18.4c0-3.2 1.6-5.6 4.6-5.6 1.8 0 3 .8 3.6 1.6l2.4-2.8c-1.4-1.6-3.4-2.6-6-2.6-5.2 0-8.8 4-8.8 9.4s3.6 9.4 8.8 9.4c2.6 0 4.6-1 6-2.6l-2.4-2.8c-.6.8-1.8 1.6-3.6 1.6-3 0-4.6-2.4-4.6-5.6zm20.4-9c-2.2 0-3.8 1-4.8 2.4V9.8h-4v17.6h4V18c0-2.4 1.4-4 3.4-4 1.8 0 3 1.2 3 3.2v10.2h4V16.6c0-4.2-2.4-7.2-5.6-7.2zm-38 0c-2.6 0-5 1.2-5 4.2 0 3.2 2.6 4 5.4 4.4 2 .4 3 .8 3 1.8s-1 1.6-2.6 1.6c-1.8 0-3.4-.8-4.6-2l-2 2.6c1.6 1.8 4 2.8 6.4 2.8 3 0 5.4-1.4 5.4-4.4 0-3-2.4-4-5.2-4.4-2-.4-3.2-.6-3.2-1.8 0-1 .8-1.6 2.2-1.6 1.6 0 3.2.8 4.2 1.8l2-2.6c-1.4-1.4-3.6-2.4-6-2.4zm-14 3.4V9.8h-4v17.6h4V18c0-2.4 1.2-4 3.2-4 .6 0 1.2.2 1.6.4l1-3.8c-.4-.2-1.2-.2-1.8-.2-2 0-3.2 1-4 2.4zm46.8-3c-2.2 0-3.6.8-4.6 2V9.8h-4v17.6h4v-1.8c1 1.4 2.4 2.2 4.6 2.2 4 0 7.2-3.6 7.2-9.4 0-5.8-3.2-9.4-7.2-9.4zm-1.2 14.8c-2 0-3.4-1.6-3.4-5.2s1.4-5.2 3.4-5.2 3.6 2.4 3.6 5.2c0 2.8-1.6 5.2-3.6 5.2zm30.2-8c0-5.4-3.2-9.4-8-9.4S79 13 79 18.4s3.4 9.4 8.4 9.4c2.8 0 5.2-1.2 6.6-3.2l-2.6-2.2c-.8 1-2.2 1.6-3.8 1.6-2.2 0-3.8-1.2-4.2-3.4h11.6v-1.2zm-11.6-1.6c.2-2 1.6-4 4-4s3.6 2 3.8 4h-7.8z" fill="#635BFF"/>
</svg>
