<svg xmlns="http://www.w3.org/2000/svg" viewBox="0 0 120 50" fill="none">
  <path d="M49.5 15.2L44.3 35h-5.2l5.2-19.8h5.2zm21.8 12.8l2.7-7.5 1.6 7.5h-4.3zm5.8 7h4.8L77.6 15.2h-4.4c-1 0-1.8.6-2.2 1.4l-7.7 18.4h5.4l1.1-3h6.6l.7 3zm-13.5-6.5c0-5.1-7.1-5.4-7.1-7.7 0-.7.7-1.4 2.1-1.6 2.1-.3 4.4.4 5.6 1l1-4.7c-1.4-.5-3.2-1-5.4-1-5.7 0-9.7 3-9.7 7.3 0 3.2 2.8 5 5 6 2.2 1.1 2.9 1.8 2.9 2.8 0 1.5-1.7 2.2-3.4 2.2-2.8 0-5-.8-6.4-1.4l-1.1 4.8c1.5.7 4.2 1.2 7 1.2 6.1 0 9.5-2.9 9.5-7.3zm-25-13.3L33 35h-5.4l-3.4-15.8c-.2-.8-.7-1.2-1.3-1.5-1.5-.7-3.9-1.5-6-1.9l.1-.6h8.7c1.1 0 2.1.8 2.4 2.1l2.2 11.4 5.3-13.5h5.4z" fill="#1A1F71"/>
</svg>
